<mxfile host="app.diagrams.net" modified="2023-09-27T20:10:55.250Z" agent="Mozilla/5.0 (Macintosh; Intel Mac OS X 10_15_7) AppleWebKit/605.1.15 (KHTML, like Gecko) Version/16.5.2 Safari/605.1.15" version="21.8.2" etag="eBlZ0jTB-wDm_wUyY1A5" type="github">
  <diagram name="Page-1" id="XMmdrvW-8wPLkKfyWkuO">
    <mxGraphModel>
      <root>
        <mxCell id="0" />
        <mxCell id="1" parent="0" />
      </root>
    </mxGraphModel>
  </diagram>
</mxfile>
